{
  "accessors": [
    {
      "bufferView": 3,
      "componentType": 5126,
      "count": 18204,
      "max": [
        151.08900451660156,
        393.7109680175781,
        795.8369140625
      ],
      "min": [
        -108.90899658203125,
        -393.7110290527344,
        1.3569200038909912
      ],
      "type": "VEC3"
    },
    {
      "bufferView": 3,
      "byteOffset": 218448,
      "componentType": 5126,
      "count": 18204,
      "max": [
        1.0,
        1.0,
        1.0
      ],
      "min": [
        -1.0,
        -1.0,
        -1.0
      ],
      "type": "VEC3"
    },
    {
      "bufferView": 2,
      "componentType": 5126,
      "count": 18204,
      "max": [
        0.9985299706459045,
        0.9981600046157837
      ],
      "min": [
        0.0013000000035390258,
        0.0024399999529123306
      ],
      "type": "VEC2"
    },
    {
      "bufferView": 1,
      "componentType": 5125,
      "count": 36516,
      "type": "SCALAR"
    },
    {
      "bufferView": 3,
      "byteOffset": 436896,
      "componentType": 5126,
      "count": 4456,
      "max": [
        49.12969970703125,
        36.058860778808594,
        826.802001953125
      ],
      "min": [
        -52.15060043334961,
        -36.058929443359375,
        708.343994140625
      ],
      "type": "VEC3"
    },
    {
      "bufferView": 3,
      "byteOffset": 490368,
      "componentType": 5126,
      "count": 4456,
      "max": [
        1.0,
        1.0,
        1.0
      ],
      "min": [
        -1.0,
        -1.0,
        -1.0
      ],
      "type": "VEC3"
    },
    {
      "bufferView": 2,
      "byteOffset": 145632,
      "componentType": 5126,
      "count": 4456,
      "max": [
        0.9980499744415283,
        0.9983000159263611
      ],
      "min": [
        0.00107999995816499,
        0.0004900000058114529
      ],
      "type": "VEC2"
    },
    {
      "bufferView": 1,
      "byteOffset": 146064,
      "componentType": 5125,
      "count": 9246,
      "type": "SCALAR"
    },
    {
      "bufferView": 5,
      "componentType": 5126,
      "count": 34,
      "max": [
        1.0,
        0.9974993467330933,
        1.0,
        0.0,
        1.0,
        1.0,
        0.8300089240074158,
        0.0,
        0.6360790133476257,
        1.0,
        1.0,
        0.0,
        544.3078002929688,
        407.15277099609375,
        723.1642456054688,
        1.0
      ],
      "min": [
        -0.9993032813072205,
        -0.1138041764497757,
        -0.9970729351043701,
        0.0,
        -0.9966528415679932,
        -0.9885529279708862,
        -0.8189919590950012,
        0.0,
        -0.551009476184845,
        -0.988899827003479,
        -0.9880278706550598,
        0.0,
        -562.6436767578125,
        -736.8013916015625,
        -161.76417541503906,
        1.0
      ],
      "type": "MAT4"
    },
    {
      "bufferView": 0,
      "componentType": 5123,
      "count": 18204,
      "type": "VEC4"
    },
    {
      "bufferView": 4,
      "componentType": 5126,
      "count": 18204,
      "max": [
        1.0,
        0.4999401867389679,
        0.31587016582489014,
        0.1693921685218811
      ],
      "min": [
        0.30593132972717285,
        0.0,
        0.0,
        0.0
      ],
      "type": "VEC4"
    },
    {
      "bufferView": 0,
      "byteOffset": 145632,
      "componentType": 5123,
      "count": 4456,
      "type": "VEC4"
    },
    {
      "bufferView": 4,
      "byteOffset": 291264,
      "componentType": 5126,
      "count": 4456,
      "max": [
        1.0,
        0.4993607699871063,
        0.05524451658129692,
        0.0
      ],
      "min": [
        0.5006392002105713,
        0.0,
        0.0,
        0.0
      ],
      "type": "VEC4"
    }
  ],
  "asset": {
    "extras": {
      "author": "junniean (https://sketchfab.com/junniean25503)",
      "license": "CC-BY-4.0 (http://creativecommons.org/licenses/by/4.0/)",
      "source": "https://sketchfab.com/3d-models/optimus-prime-8a37b8485f1c4f20b8a318adce82357b",
      "title": "Optimus Prime"
    },
    "generator": "Sketchfab-12.97.0",
    "version": "2.0"
  },
  "bufferViews": [
    {
      "buffer": 0,
      "byteLength": 181280,
      "byteStride": 8,
      "name": "shortBufferViews",
      "target": 34962
    },
    {
      "buffer": 0,
      "byteLength": 183048,
      "byteOffset": 181280,
      "name": "floatBufferViews",
      "target": 34963
    },
    {
      "buffer": 0,
      "byteLength": 181280,
      "byteOffset": 364328,
      "byteStride": 8,
      "name": "floatBufferViews",
      "target": 34962
    },
    {
      "buffer": 0,
      "byteLength": 543840,
      "byteOffset": 545608,
      "byteStride": 12,
      "name": "floatBufferViews",
      "target": 34962
    },
    {
      "buffer": 0,
      "byteLength": 362560,
      "byteOffset": 1089448,
      "byteStride": 16,
      "name": "floatBufferViews",
      "target": 34962
    },
    {
      "buffer": 0,
      "byteLength": 2176,
      "byteOffset": 1452008,
      "name": "floatBufferViews"
    }
  ],
  "buffers": [
    {
      "byteLength": 1454184,
      "uri": "scene.bin"
    }
  ],
  "images": [
    {
      "uri": "textures/RB_OptimusBoss_MATINSTmat_baseColor.png"
    },
    {
      "uri": "textures/RB_OptimusHead_MATINSTmat_baseColor.png"
    }
  ],
  "materials": [
    {
      "doubleSided": true,
      "name": "RB_OptimusBoss_MATINSTmat",
      "pbrMetallicRoughness": {
        "baseColorTexture": {
          "index": 0
        },
        "metallicFactor": 0.0
      }
    },
    {
      "doubleSided": true,
      "name": "RB_OptimusHead_MATINSTmat",
      "pbrMetallicRoughness": {
        "baseColorTexture": {
          "index": 1
        },
        "metallicFactor": 0.0
      }
    }
  ],
  "meshes": [
    {
      "name": "C_Root_Reference_XR_RB_OptimusBoss_MATINSTmat_0",
      "primitives": [
        {
          "attributes": {
            "JOINTS_0": 9,
            "NORMAL": 1,
            "POSITION": 0,
            "TEXCOORD_0": 2,
            "WEIGHTS_0": 10
          },
          "indices": 3,
          "material": 0,
          "mode": 4
        }
      ]
    },
    {
      "name": "C_Root_Reference_XR_RB_OptimusHead_MATINSTmat_0",
      "primitives": [
        {
          "attributes": {
            "JOINTS_0": 11,
            "NORMAL": 5,
            "POSITION": 4,
            "TEXCOORD_0": 6,
            "WEIGHTS_0": 12
          },
          "indices": 7,
          "material": 1,
          "mode": 4
        }
      ]
    }
  ],
  "nodes": [
    {
      "children": [
        1
      ],
      "matrix": [
        0.2490607649087906,
        0.0,
        0.0,
        0.0,
        0.0,
        5.530259914649851e-17,
        -0.2490607649087906,
        0.0,
        0.0,
        0.2490607649087906,
        5.530259914649851e-17,
        0.0,
        0.0,
        0.0,
        0.0,
        1.0
      ],
      "name": "Sketchfab_model"
    },
    {
      "children": [
        2
      ],
      "matrix": [
        0.009999999776482582,
        0.0,
        0.0,
        0.0,
        0.0,
        0.0,
        0.009999999776482582,
        0.0,
        0.0,
        -0.009999999776482582,
        0.0,
        0.0,
        0.0,
        0.0,
        0.0,
        1.0
      ],
      "name": "Optimus.fbx"
    },
    {
      "children": [
        3
      ],
      "name": "Object_2"
    },
    {
      "children": [
        4
      ],
      "name": "RootNode"
    },
    {
      "children": [
        5,
        7,
        8,
        6,
        42
      ],
      "name": "Object_4"
    },
    {
      "children": [
        9
      ],
      "name": "_rootJoint"
    },
    {
      "matrix": [
        1.0000000000000004,
        -4.163336342344337e-17,
        -1.3877787807814457e-17,
        0.0,
        4.163336342344335e-17,
        1.0,
        -5.551115123125783e-17,
        0.0,
        1.3877787807814449e-17,
        5.5511151231257815e-17,
        0.9999999999999998,
        0.0,
        4.085620730620576e-14,
        2.842170943040401e-14,
        0.0,
        1.0
      ],
      "name": "Object_6"
    },
    {
      "mesh": 0,
      "name": "Object_7",
      "skin": 0
    },
    {
      "mesh": 1,
      "name": "Object_8",
      "skin": 0
    },
    {
      "children": [
        10,
        32,
        37
      ],
      "name": "mixamorig:Hips_01",
      "rotation": [
        9.373498482632464e-34,
        -3.0616171314629196e-17,
        3.0616171314629196e-17,
        1.0
      ],
      "translation": [
        -3.973893404006958,
        -3.0517578125e-05,
        452.4378662109375
      ]
    },
    {
      "children": [
        11
      ],
      "name": "mixamorig:Spine_02",
      "rotation": [
        -0.016836240887641907,
        -0.0,
        0.0,
        0.9998582601547241
      ],
      "translation": [
        4.440892098500626e-16,
        55.91741943359375,
        -1.8836801052093506
      ]
    },
    {
      "children": [
        12
      ],
      "name": "mixamorig:Spine1_03",
      "rotation": [
        -1.8615891050899336e-08,
        -1.0756367012157296e-41,
        5.7777898331617076e-34,
        1.0
      ],
      "translation": [
        0.0,
        65.27400207519531,
        7.971232207637513e-08
      ]
    },
    {
      "children": [
        13,
        16,
        24
      ],
      "name": "mixamorig:Spine2_04",
      "rotation": [
        0.0,
        -0.0,
        -3.851859888774472e-34,
        1.0
      ],
      "translation": [
        -4.440892098500626e-16,
        74.59880828857422,
        1.789612724678591e-08
      ]
    },
    {
      "children": [
        14
      ],
      "name": "mixamorig:Neck_05",
      "rotation": [
        0.0168362595140934,
        -6.485091269933394e-36,
        -3.8513139267498124e-34,
        0.9998582601547241
      ],
      "translation": [
        4.440892098500626e-16,
        83.92373657226563,
        4.495045686780941e-06
      ]
    },
    {
      "children": [
        15
      ],
      "name": "mixamorig:Head_06",
      "rotation": [
        0.0,
        -0.0,
        -2.124423644960599e-34,
        1.0
      ],
      "translation": [
        -4.440892098500626e-16,
        4.77642822265625,
        0.33363914489746094
      ]
    },
    {
      "name": "mixamorig:HeadTop_End_07",
      "rotation": [
        0.0,
        -0.0,
        -2.124423644960599e-34,
        1.0
      ],
      "translation": [
        4.440892098500626e-16,
        77.522216796875,
        5.415019512176514
      ]
    },
    {
      "children": [
        17
      ],
      "name": "mixamorig:LeftShoulder_08",
      "rotation": [
        -0.5320415496826172,
        -0.46429958939552307,
        0.5403702259063721,
        -0.45755621790885925
      ],
      "translation": [
        43.502281188964844,
        76.74195861816406,
        -0.693299412727356
      ]
    },
    {
      "children": [
        18
      ],
      "name": "mixamorig:LeftArm_09",
      "rotation": [
        0.2800130546092987,
        0.09377089887857437,
        -0.0274940337985754,
        0.955009937286377
      ],
      "translation": [
        -3.790290747929248e-08,
        91.63138580322266,
        -5.263982529868372e-07
      ]
    },
    {
      "children": [
        19
      ],
      "name": "mixamorig:LeftForeArm_010",
      "rotation": [
        0.12174565345048904,
        0.011273653246462345,
        0.09151382744312286,
        0.9882692694664001
      ],
      "translation": [
        -9.904786111292196e-07,
        148.3462371826172,
        4.0640616134624e-06
      ]
    },
    {
      "children": [
        20
      ],
      "name": "mixamorig:LeftHand_011",
      "rotation": [
        0.22031894326210022,
        -0.7255614399909973,
        0.2692309617996216,
        0.5937466025352478
      ],
      "translation": [
        -3.189464905517525e-07,
        151.76129150390625,
        1.4023975154486834e-06
      ]
    },
    {
      "children": [
        21
      ],
      "name": "mixamorig:LeftHandIndex1_012",
      "rotation": [
        -0.026900818571448326,
        0.9337034821510315,
        -0.34973758459091187,
        -0.07181784510612488
      ],
      "translation": [
        6.113356789683166e-07,
        21.91788673400879,
        -3.5260995900898706e-07
      ]
    },
    {
      "children": [
        22
      ],
      "name": "mixamorig:LeftHandIndex2_013",
      "rotation": [
        0.0,
        0.0,
        5.399326818977812e-17,
        1.0
      ],
      "translation": [
        1.3988426417199662e-06,
        43.653663635253906,
        9.178830850942177e-08
      ]
    },
    {
      "children": [
        23
      ],
      "name": "mixamorig:LeftHandIndex3_014",
      "rotation": [
        1.0408340855860843e-17,
        -6.938893903907228e-18,
        8.196568423990414e-17,
        1.0
      ],
      "translation": [
        -2.0668246746063232,
        18.552154541015625,
        -6.515672206878662
      ]
    },
    {
      "name": "mixamorig:LeftHandIndex4_015",
      "rotation": [
        3.469446951953614e-18,
        -3.469446951953614e-18,
        8.131516293641283e-17,
        1.0
      ],
      "translation": [
        1.0989254713058472,
        26.226699829101563,
        -6.668426513671875
      ]
    },
    {
      "children": [
        25
      ],
      "name": "mixamorig:RightShoulder_016",
      "rotation": [
        0.5376644134521484,
        -0.4596426486968994,
        0.5350854992866516,
        0.4618756175041199
      ],
      "translation": [
        -43.502281188964844,
        76.71157836914063,
        0.2084202915430069
      ]
    },
    {
      "children": [
        26
      ],
      "name": "mixamorig:RightArm_017",
      "rotation": [
        0.2818753719329834,
        -0.11658395081758499,
        0.03452938050031662,
        0.9517154097557068
      ],
      "translation": [
        1.3207625215727603e-08,
        91.63138580322266,
        -5.272709699966072e-07
      ]
    },
    {
      "children": [
        27
      ],
      "name": "mixamorig:RightForeArm_018",
      "rotation": [
        0.1159585639834404,
        -0.011918000876903534,
        -0.10154258459806442,
        0.9879781007766724
      ],
      "translation": [
        -6.194013053573144e-07,
        148.52210998535156,
        -2.0855674165431992e-07
      ]
    },
    {
      "children": [
        28
      ],
      "name": "mixamorig:RightHand_019",
      "rotation": [
        -0.06377372145652771,
        0.009411022067070007,
        -0.14568449556827545,
        0.9872287511825562
      ],
      "translation": [
        -5.734625574405072e-08,
        151.7275848388672,
        -1.1986168146904674e-06
      ]
    },
    {
      "children": [
        29
      ],
      "name": "mixamorig:RightHandIndex1_020",
      "rotation": [
        0.07981592416763306,
        0.004345836117863655,
        0.05419379472732544,
        0.9953258633613586
      ],
      "translation": [
        -2.54358724305348e-07,
        78.52983856201172,
        1.9738827177206986e-06
      ]
    },
    {
      "children": [
        30
      ],
      "name": "mixamorig:RightHandIndex2_021",
      "rotation": [
        5.551115123125783e-17,
        2.7755575615628914e-17,
        2.7755575615628914e-17,
        1.0
      ],
      "translation": [
        3.984382601629477e-08,
        7.621310234069824,
        -8.64157527757925e-08
      ]
    },
    {
      "children": [
        31
      ],
      "name": "mixamorig:RightHandIndex3_022",
      "rotation": [
        6.591949208711867e-17,
        -1.829633447167874e-33,
        -2.7755575615628914e-17,
        1.0
      ],
      "translation": [
        -0.012609765864908695,
        13.993912696838379,
        -1.1803361177444458
      ]
    },
    {
      "name": "mixamorig:RightHandIndex4_023",
      "rotation": [
        4.163336342344337e-17,
        1.3877787807814457e-17,
        4.163336342344337e-17,
        1.0
      ],
      "translation": [
        4.094344139099121,
        8.846433639526367,
        2.2094874382019043
      ]
    },
    {
      "children": [
        33
      ],
      "name": "mixamorig:LeftUpLeg_024",
      "rotation": [
        -0.0010642358101904392,
        -0.014524230733513832,
        0.997220516204834,
        -0.07306947559118271
      ],
      "translation": [
        65.7415771484375,
        -31.048065185546875,
        4.779362678527832
      ]
    },
    {
      "children": [
        34
      ],
      "name": "mixamorig:LeftLeg_025",
      "rotation": [
        -0.04264014959335327,
        -0.00034705057623796165,
        0.00813138298690319,
        0.9990573525428772
      ],
      "translation": [
        6.958510567756093e-08,
        209.30751037597656,
        -7.955219416544423e-08
      ]
    },
    {
      "children": [
        35
      ],
      "name": "mixamorig:LeftFoot_026",
      "rotation": [
        0.44744807481765747,
        0.072332963347435,
        -0.03633936867117882,
        0.8906388878822327
      ],
      "translation": [
        -3.986949650425231e-07,
        114.70767974853516,
        -7.307937721634516e-08
      ]
    },
    {
      "children": [
        36
      ],
      "name": "mixamorig:LeftToeBase_027",
      "rotation": [
        0.36821138858795166,
        -0.06447479128837585,
        0.025605719536542892,
        0.927150309085846
      ],
      "translation": [
        -9.04000444279518e-07,
        143.44932556152344,
        3.093179657298606e-06
      ]
    },
    {
      "name": "mixamorig:LeftToe_End_028",
      "rotation": [
        2.2955130851709526e-10,
        -7.773729576721067e-17,
        6.938893903907228e-18,
        1.0
      ],
      "translation": [
        -2.531563723096042e-07,
        61.43898010253906,
        1.188902842841344e-08
      ]
    },
    {
      "children": [
        38
      ],
      "name": "mixamorig:RightUpLeg_00",
      "rotation": [
        0.0013212949270382524,
        -0.01803656667470932,
        0.9971644878387451,
        0.07304872572422028
      ],
      "translation": [
        -65.7415771484375,
        -31.048065185546875,
        5.499764442443848
      ]
    },
    {
      "children": [
        39
      ],
      "name": "mixamorig:RightLeg_029",
      "rotation": [
        -0.03894245624542236,
        0.0003158553154207766,
        -0.008104403503239155,
        0.9992085099220276
      ],
      "translation": [
        7.325680826397729e-07,
        209.3546600341797,
        4.0208533391705714e-08
      ]
    },
    {
      "children": [
        40
      ],
      "name": "mixamorig:RightFoot_030",
      "rotation": [
        0.4557240903377533,
        -0.06901656091213226,
        0.0354701392352581,
        0.886732280254364
      ],
      "translation": [
        1.109045456360036e-06,
        114.70280456542969,
        -7.651851774426177e-08
      ]
    },
    {
      "children": [
        41
      ],
      "name": "mixamorig:RightToeBase_031",
      "rotation": [
        0.3591836988925934,
        0.059488117694854736,
        -0.02294864133000374,
        0.9310862421989441
      ],
      "translation": [
        -4.84587019400351e-07,
        146.3914337158203,
        -1.4233683032216504e-06
      ]
    },
    {
      "name": "mixamorig:RightToe_End_032",
      "rotation": [
        4.315537094345956e-10,
        4.163336342344337e-17,
        -6.938893903907228e-18,
        1.0
      ],
      "translation": [
        1.224343009198492e-07,
        58.1556396484375,
        1.96106384464656e-08
      ]
    },
    {
      "name": "C_Root_Reference_XR"
    }
  ],
  "samplers": [
    {
      "magFilter": 9729,
      "minFilter": 9987,
      "wrapS": 10497,
      "wrapT": 10497
    }
  ],
  "scene": 0,
  "scenes": [
    {
      "name": "Sketchfab_Scene",
      "nodes": [
        0
      ]
    }
  ],
  "skins": [
    {
      "inverseBindMatrices": 8,
      "joints": [
        5,
        9,
        10,
        11,
        12,
        13,
        14,
        15,
        16,
        17,
        18,
        19,
        20,
        21,
        22,
        23,
        24,
        25,
        26,
        27,
        28,
        29,
        30,
        31,
        32,
        33,
        34,
        35,
        36,
        37,
        38,
        39,
        40,
        41
      ],
      "skeleton": 5
    }
  ],
  "textures": [
    {
      "sampler": 0,
      "source": 0
    },
    {
      "sampler": 0,
      "source": 1
    }
  ]
}
